<?xml version="1.0" standalone="no"?>
<!DOCTYPE svg PUBLIC "-//W3C//DTD SVG 20010904//EN"
 "http://www.w3.org/TR/2001/REC-SVG-20010904/DTD/svg10.dtd">
<svg version="1.0" xmlns="http://www.w3.org/2000/svg"
 width="512.000000pt" height="512.000000pt" viewBox="0 0 512.000000 512.000000"
 preserveAspectRatio="xMidYMid meet">
<metadata>
Created by potrace 1.14, written by Peter Selinger 2001-2017
</metadata>
<g transform="translate(0.000000,512.000000) scale(0.100000,-0.100000)"
fill="#000000" stroke="none">
<path d="M2379 5116 c-2 -2 -40 -6 -83 -10 -44 -4 -82 -8 -85 -10 -3 -2 -31
-7 -61 -11 -30 -3 -75 -11 -100 -17 -25 -5 -56 -12 -70 -14 -48 -10 -197 -54
-286 -85 -398 -140 -788 -408 -1064 -729 -64 -74 -76 -89 -143 -180 -208 -280
-367 -643 -436 -995 -40 -200 -46 -267 -45 -515 0 -184 3 -241 19 -345 3 -16
7 -43 9 -60 37 -265 165 -623 307 -860 10 -16 27 -46 38 -65 19 -36 131 -195
166 -239 246 -301 506 -518 820 -685 228 -122 538 -225 781 -261 22 -4 50 -8
64 -11 103 -19 473 -26 600 -12 147 17 153 18 250 38 30 6 66 13 80 16 111 21
368 110 505 175 656 311 1151 881 1364 1574 78 254 105 448 106 740 0 193 -3
251 -16 330 -4 28 -10 66 -13 85 -2 19 -10 60 -16 90 -6 30 -14 66 -16 80 -18
88 -89 307 -139 425 -256 606 -779 1120 -1390 1367 -133 54 -376 126 -485 144
-70 11 -86 14 -195 30 -44 6 -460 15 -466 10z m1404 -1286 c21 -14 46 -43 57
-66 19 -37 20 -61 20 -337 l0 -297 -67 0 c-92 -1 -2448 -1 -2495 0 l-38 0 0
295 c0 317 4 344 52 386 58 51 -1 49 1259 46 l1175 -2 37 -25z m50 -890 l27 0
-2 -382 -3 -383 -837 0 c-556 0 -838 3 -839 10 0 5 -2 178 -2 382 l-2 373 250
2 c192 2 864 1 1408 -2z m-1843 -383 l0 -382 -365 0 -365 0 0 382 0 383 365 0
365 0 0 -383z m0 -932 l0 -365 -294 0 c-184 0 -305 4 -323 11 -15 5 -41 22
-57 37 -54 51 -56 66 -56 387 l0 295 365 0 365 0 0 -365z m1868 57 l-3 -309
-25 -36 c-14 -21 -43 -46 -66 -57 -39 -19 -63 -20 -812 -20 -728 0 -772 1
-773 18 -3 65 -3 704 0 708 2 2 382 4 843 4 l839 0 -3 -308z"/>
</g>
</svg>
